# xmcd
#
# Track frame offsets: 
#        150
#        9015
#        13439
#        25098
#        36806
#
# Disc length: 540 seconds
#
# Revision: 0
# Processed by: cddbd v1.5.2PL0 Copyright (c) Steve Scherf et al.
# Submitted via: ExactAudioCopy v0.99pb3
#
DISCID=2d021a05
DTITLE=Brown, Sam - The Worst Noel
DYEAR=2006
DGENRE=Christmas/Holiday
TTITLE0=The Worst Noel
TTITLE1=Walk The Malls
TTITLE2=Singles Bars
TTITLE3=Violent Night
TTITLE4=O Little Pill Called Wellbutrin
EXTD=
EXTT0=
EXTT1=
EXTT2=
EXTT3=
EXTT4=
PLAYORDER=
